<?xml version="1.0" encoding="UTF-8"?><svg id="Layer_1" xmlns="http://www.w3.org/2000/svg" viewBox="0 0 138.14 1247.3"><defs><style>.cls-1{fill:#702266;}.cls-1,.cls-2,.cls-3,.cls-4{stroke-width:0px;}.cls-2{fill:#d5519c;}.cls-5{stroke:#edcde2;}.cls-5,.cls-6,.cls-7{stroke-miterlimit:10;}.cls-5,.cls-7{fill:#c69;stroke-width:1.73px;}.cls-6{fill:none;stroke:#be4e9c;stroke-width:2.31px;}.cls-3{fill:#a0509e;}.cls-7{stroke:#eecde1;}.cls-4{fill:#edcde2;}</style></defs><path class="cls-4" d="M61.37,1096.16c-1.13-.89-.69-2.35-.49-3.64l-1.18,1.54c1.56-.79,3.28-1.34,5.04-1.33,3.32.02,3.32-5.14,0-5.15-1.65,0-3.33.31-4.89.85s-3.55,1.14-3.97,2.96c-.67,2.87-.66,6.44,1.85,8.42,1.09.86,2.58,1.06,3.64,0,.89-.89,1.1-2.78,0-3.64h0Z"/><path class="cls-4" d="M64.6,28.95c1.56,138.96,2.03,277.93,1.82,416.9-.21,136.67-1.08,273.34-2.16,410.01-.61,77.38-1.29,154.76-1.95,232.14-.05,5.88,9.09,5.89,9.14,0,1.17-137.37,2.4-274.73,3.21-412.1.81-137.11,1.2-274.23.75-411.35-.26-78.53-.8-157.07-1.68-235.6-.07-5.88-9.21-5.89-9.14,0h0Z"/><path class="cls-4" d="M92.86,1096.65c.77-4.68-.72-10.48-5.39-12.66-3.87-1.81-9.2-.98-13.12.27-3.15,1-1.8,5.98,1.37,4.97,2.45-.78,5.16-1.26,7.73-.99,3.42.36,4.97,3.83,4.44,7.04s4.43,4.64,4.97,1.37h0Z"/><path class="cls-1" d="M99.93,1106.44c.31,5.49.94,10.8.33,16.3-.66,6.01-.54,11.68.76,17.6l3.06-4.02c-19.99,1.79-40.03,2.75-60.07,3.68l3.22,3.22c1.02-10.29.42-20.51-1.63-30.64l-5.88,2.48c3.52,6.04,7.53,11.69,12.01,17.06,1.44,1.73,3.96.88,5.05-.65,2.01-2.81,4.39-4.59,5.4-8.03l-5.88.77c2.02,2.66,5.18,7.68,8.84,7.96,4.17.32,6.24-6.61,7.81-9.43l-5.05.65c3.08,3.72,6.63,6.81,10.66,9.46,1.36.89,3.69.36,4.4-1.15,1.08-2.28,2.79-3.82,3.68-6.24l-5.88.77c2.2,4.04,5.03,6.6,8.94,8.94,1.94,1.16,3.98-.05,4.73-1.92,2.29-5.77,5.03-11.29,8.18-16.64l-6-1.62c.02,6.68.04,13.36.06,20.04l3.22-3.22c-8.77.22-17.54.61-26.29,1.21-4.21.29-8.43.62-12.63,1-3.92.35-8.63,1.56-12.5,1.06l3.1,2.36c-.37-1.43-.33-2.85.13-4.28l-4.73,1.92c5.54,3.99,11.68,1.35,17.88,1.5v-6.43c-2.6-.04-4.42-.74-6.54-2.25l-1.62,6c5.8-.36,11.43.04,17.1,1.3,4.06.9,5.63-4.87,1.71-6.2-2.12-.72-4.23-1.44-6.35-2.17l1.42,5.38c2.94-2.51,8.47.63,11.5,1.43,3.56.93,7.19,1.39,10.86,1.59v-6.43c-3.52.28-8.82-.17-11.88,1.79-2.2,1.4-1.93,4.11,0,5.56l.21.16c1.01.76,3.11.52,3.9-.5l.12-.15c1.37-1.77,1.19-4.79-1.42-5.38-5-1.12-10.04-1.47-15.16-1.43-1.62.01-16.83.04-16.66-.45,1.33-3.93-4.88-5.62-6.2-1.71-2.12,6.25,4.28,8.65,9.26,8.8,9.07.27,18.09-1.01,27.05.99l-1.42-5.38-.12.15,3.9-.5-.21-.16v5.56c1.72-1.1,6.58-.75,8.63-.91,4.11-.32,4.17-6.21,0-6.43-6.11-.33-11.25-2.66-17.14-3.67-3.74-.64-6.88.09-9.77,2.55-1.97,1.68-.69,4.66,1.42,5.38s4.23,1.44,6.35,2.17l1.71-6.2c-6.22-1.39-12.44-1.93-18.81-1.53-3.3.21-4.22,4.14-1.62,6,2.97,2.12,6.14,3.07,9.78,3.13,4.14.07,4.14-6.34,0-6.43-4.78-.11-10.42,2.42-14.63-.62-1.62-1.17-4.35,0-4.73,1.92-.5,2.53-1.06,5.22-.13,7.7.56,1.5,1.57,2.16,3.1,2.36,3.87.5,8.58-.71,12.5-1.06,4.21-.38,8.42-.71,12.63-1,8.75-.6,17.52-.99,26.29-1.21,1.73-.04,3.22-1.44,3.22-3.22-.02-6.68-.04-13.36-.06-20.04,0-3.19-4.38-4.38-6-1.62-3.43,5.84-6.33,11.89-8.83,18.18l4.73-1.92c-3.03-1.82-4.93-3.51-6.63-6.64-1.42-2.61-4.98-1.69-5.88.77-.62,1.69-2.25,3.05-3.03,4.7l4.4-1.15c-3.62-2.38-6.6-5.13-9.36-8.46-1.32-1.6-4.12-1.03-5.05.65-.55.99-1.1,1.98-1.65,2.97-.4.72-2.79,3.44-.81,2.9,1.55-.43.06-.43-.55-1.41s-1.87-2.11-2.53-2.98c-1.62-2.13-5.04-2.1-5.88.77-.74,2.52-3.24,4.38-4.75,6.49l5.05-.65c-4.12-4.95-7.75-10.2-11-15.76-1.9-3.26-6.59-1.01-5.88,2.48,1.95,9.59,2.36,19.2,1.4,28.93-.17,1.68,1.61,3.29,3.22,3.22,20.05-.92,40.09-1.9,60.07-3.76,2.11-.2,3.55-1.87,3.06-4.02-1.43-6.4-.8-12.11-.31-18.54.38-4.95-.66-9.59-1.85-14.35-.69-2.77-5.22-2.25-5.05.68h0Z"/><path class="cls-3" d="M101.38,1107.42c-4.51,7.45-7.87,15.62-12.67,22.91l3.79.49c-1.38-3.97-3.22-7.98-5.66-11.42-.82-1.16-3.04-1.64-3.74,0-.62,1.45-1.31,2.83-2.13,4.18-.38.64-.78,1.26-1.2,1.88-.27.4-.63,1.12-1.04,1.29l1.02-.28c-.23,0-.74-.57-.9-.7-.4-.33-.81-.67-1.2-1.02-.69-.61-1.36-1.23-1.99-1.9-1.25-1.33-2.22-2.82-2.72-4.59-.64-2.28-3.49-1.91-4.27,0-1.27,3.09-3.12,6.16-5.49,8.53l3.49.45c-1.95-2.74-3.43-5.77-4.44-8.98-.7-2.22-4.43-2.61-4.91,0-.6,3.25-2.22,5.96-4.79,8.03h3.63c-4.83-5.07-8.98-10.68-12.45-16.77-1.23-2.17-4.97-1.3-4.83,1.31.32,6.05.65,12.11.97,18.16.16,2.99.32,5.97.48,8.96.08,1.49.16,2.99.24,4.48.09,1.65-.04,3.27,1.12,4.57.6.68,1.67.9,2.51.66.75-.21,1.45-.67,1.78-1.39.51-1.11.42-2.21-.4-3.13l-.09-.1c-2.23-2.48-5.87,1.19-3.65,3.65l.09.1-.4-3.13-.08.16,1.54-1.19-.16.04,2.51.66-.18-.21.66,1.14c-.21-1.22-.11-2.59-.18-3.84-.08-1.41-.15-2.82-.23-4.23-.15-2.82-.3-5.64-.45-8.46-.3-5.64-.6-11.28-.91-16.92l-4.83,1.31c3.69,6.44,8.17,12.41,13.29,17.79,1.03,1.08,2.57.86,3.63,0,3.17-2.56,5.37-6.3,6.07-10.31h-4.91c1.25,3.86,3.22,7.24,5.85,10.32.73.86,2.41.87,3.15,0,2.74-3.25,4.99-6.55,6.62-10.5h-4.27c1.24,4.46,4.88,7.51,8.46,10.17.97.72,2.09,1.16,3.3.8s1.83-1.41,2.49-2.34c1.47-2.05,2.75-4.25,3.92-6.48h-3.74c2,3.37,3.89,6.71,5.41,10.34.65,1.55,2.82,2.19,3.79.49,4.41-7.7,9.32-15.23,11.91-23.81.51-1.7-1.92-2.67-2.82-1.19h0Z"/><path class="cls-3" d="M102.22,1108.89c-1.04,2.41-.92,5.33-.88,7.92s.12,5.41.26,8.11.29,5.24.48,7.85c.1,1.39.22,2.78.37,4.17.15,1.46.21,2.81.92,4.13.81,1.49,2.91,1,3.41-.45.45-1.3.28-2.58.21-3.93s-.13-2.62-.21-3.92c-.17-2.7-.3-5.4-.41-8.1s-.23-5.24-.32-7.86-.04-5.53-1.12-7.92c-.46-1.01-2.25-1.04-2.69,0h0Z"/><polygon class="cls-6" points="39 1101.37 104.4 1097.25 106.47 1143.8 41.94 1147.33 39 1101.37"/><path class="cls-2" d="M103.63,1096.8c-3.07,4.4-5.21,10.02-7.22,14.99-2.25,5.55-4.74,10.97-7.06,16.5l2.13-.56c-2.6-3.1-4.39-6.56-5.97-10.25-.46-1.09-1.91-.75-2.46,0-1.75,2.42-3.4,4.89-4.96,7.44l2.16-.28c-2.73-2.83-5.54-5.61-8.15-8.55-.5-.57-1.46-.5-1.97,0-2.21,2.18-4.38,4.39-6.28,6.85l3.15.83c-1.66-4.06-3.97-7.14-7.48-9.8-.93-.71-2.41.05-2.66,1.08-.78,3.2-2.01,6.23-4.02,8.84h3.17c-5.26-7.29-10.19-14.58-14.9-22.24-1.29-2.1-4.43-.25-3.29,1.92,4.19,7.97,9.43,15.72,15.31,22.54.7.82,2.43.68,2.88-.37,1.32-3.13,2.84-6.16,4.17-9.3l-2.85.37c2.78,2.38,4.78,5.04,6.23,8.4.63,1.44,2.52.99,3.25,0,1.78-2.38,3.45-4.82,5.29-7.16h-1.97c2.82,2.74,5.47,5.67,8.18,8.52.63.66,1.7.45,2.16-.28,1.59-2.54,3.27-4.99,5.05-7.39l-2.6-.34c1.69,4.08,4.02,7.54,6.77,10.96.48.6,1.69.45,2-.26,2.56-5.8,5.63-11.18,8.53-16.8,2.35-4.55,4.97-10.04,5.08-15.22.02-.94-1.18-1.14-1.66-.45h0Z"/><polygon class="cls-7" points="41.94 1147.33 1.09 1198.61 36.05 1245.83 62.37 1209.63 39.88 1214.95 23.43 1212 19.75 1192.8 58.74 1146.41 41.94 1147.33"/><polygon class="cls-5" points="96.77 1144.33 116.18 1182.2 99.46 1189.28 80.9 1198.61 109.96 1199.25 136.81 1189.27 106.47 1143.8 96.77 1144.33"/><path class="cls-4" d="M42.7,1148.03c-8.09,7.45-14.85,16.32-21.58,25.02-3.38,4.37-6.84,8.68-10.26,13.02-2.62,3.32-7.14,7.33-8.78,11.26-1.23,2.95,1.09,5.39,2.71,7.72,3.15,4.52,6.56,8.87,9.87,13.27,6.59,8.76,13.1,17.36,20.46,25.45,1.17,1.29,3.36-.39,2.42-1.87-5.01-7.86-10.48-15.2-16.2-22.59-3.18-4.1-6.35-8.21-9.54-12.31-1.52-1.96-3.64-3.91-4.89-6.03-1.86-3.14-.94-3.2,1.56-6.34,11.89-14.95,25.77-29.1,35.84-45.34.64-1.03-.78-2.03-1.62-1.25h0Z"/><path class="cls-4" d="M105.66,1144.69c2.09,8.21,7.28,16.04,11.74,23.15,4.7,7.49,9.89,14.24,16.2,20.42.98.96,2.73-.29,1.94-1.5-4.79-7.4-9.87-14.58-14.72-21.94-4.55-6.92-8.14-14.74-13.27-21.23-.74-.94-2.16.09-1.9,1.11h0Z"/><path class="cls-2" d="M39.07,1100.58c-1.96,7.14.15,15.55,1.01,22.77.46,3.87.81,7.76,1.04,11.65s-.24,7.99.57,11.86c.19.93,1.55.67,1.59-.22.18-3.91-.92-7.75-1.27-11.65-.37-4.19-.61-8.42-.67-12.62-.1-7.17.16-14.8-1.61-21.8-.08-.33-.58-.32-.67,0h0Z"/><path class="cls-2" d="M38.47,1102.18c21.33,1.61,42.91-3.82,64.24-2.66,1.85.1,1.84-2.77,0-2.88-11.31-.69-22.92,1.17-34.21,1.88-10.01.63-20.33.61-30.18,2.59-.64.13-.44,1.03.15,1.08h0Z"/><path class="cls-2" d="M103.41,1098.72c-.84,7.57.21,15.76,1.33,23.26.59,3.93,1.1,7.67,1.09,11.64,0,3.35-.66,6.66.57,9.83.15.38.81.5.9,0,1.2-6.7.12-14.66-.18-21.47-.34-7.69-1.43-15.6-2.29-23.26-.1-.91-1.32-.91-1.42,0h0Z"/><path class="cls-2" d="M42.95,1149.08c5.35.59,10.78-.97,16.26-.37,5,.55,8.97.85,13.95.06,5.62-.9,11.25-.62,16.91-.99s11.02-2.47,16.51-2.19c2.22.11,2.67-3.34.52-3.86-5.82-1.43-11.2.64-17.03,1.06-5.51.39-11.03.11-16.5.94-2.86.43-5.59,1.1-8.5.94-3.12-.17-6.11-.73-9.26-.61-4.53.17-9.83.74-13.39,3.72-.57.48-.05,1.25.55,1.32h0Z"/><path class="cls-1" d="M95.3,1130.32c.02.22.02.43-.01.65l.06-.44c-.02.16-.06.32-.11.48-.26.82.3,1.83,1.15,2.02.89.2,1.74-.27,2.02-1.15.16-.49.23-1.04.18-1.56-.04-.44-.16-.84-.48-1.16-.28-.28-.75-.5-1.16-.48s-.86.16-1.16.48c-.28.3-.52.73-.48,1.16h0Z"/><path class="cls-1" d="M97,1131.09c2.11,0,2.12-3.28,0-3.28s-2.12,3.28,0,3.28h0Z"/><path class="cls-2" d="M79.72,1087.27c1.5-141.75,2-283.5,2.71-425.25.7-139.86,2.94-279.74,2.4-419.61-.3-78.34-1.3-156.67-2.27-235-.12-9.88-15.48-9.9-15.36,0,1.72,139.49,2.78,278.91,1.47,418.41-1.33,141.07-1.76,282.14-2.52,423.21-.43,79.41-.95,158.83-1.8,238.24-.1,9.89,15.25,9.89,15.36,0h0Z"/><path class="cls-2" d="M58.37,1090.66c-3.52,3.65-1.36,8.88,3.46,9.37s9.57-.3,14.2-.51c3.1-.14,8.59.77,11.26-.87,4.4-2.71,1.16-8.71-2.68-9.87-3.21-.98-7.27-.02-10.52.16-4.65.25-9.3.47-13.95.8-4.06.29-4.09,6.66,0,6.37,4.35-.31,8.71-.52,13.06-.75,2.02-.11,4.06-.14,6.07-.35,1.21,0,2.39-.19,3.55-.54.16,1.11.2,1.06.12-.17l2.75-1.58c-4.18.19-8.36.38-12.54.57-1.93.09-3.86.18-5.79.26-.96.04-1.93.09-2.89.13-1.29-.39-1.82.1-1.57,1.48,2.85-2.95-1.65-7.46-4.5-4.5h0Z"/><path class="cls-4" d="M77.51,6c.53,69.1,1.09,138.2,1.61,207.3.53,70.42,1.03,140.84,1.43,211.26.41,71.4.72,142.81.87,214.21.15,70.69.14,141.37-.09,212.06-.23,69.63-.68,139.26-1.45,208.89-.09,8.55-.19,17.11-.3,25.66-.03,2.62,4.91,2.68,4.94-.19.84-69.38,1.36-138.76,1.65-208.15.29-70.57.35-141.13.24-211.7-.11-71.41-.39-142.83-.77-214.24-.38-70.56-.86-141.12-1.38-211.67s-1.07-138.73-1.61-208.09c-.07-8.51-.13-17.02-.2-25.53-.02-2.63-4.96-2.68-4.94.19h0Z"/></svg>